<?xml version="1.0" standalone="no"?>
<!DOCTYPE svg PUBLIC "-//W3C//DTD SVG 20010904//EN"
 "http://www.w3.org/TR/2001/REC-SVG-20010904/DTD/svg10.dtd">
<svg version="1.0" xmlns="http://www.w3.org/2000/svg"
 width="512.000000pt" height="512.000000pt" viewBox="0 0 512.000000 512.000000"
 preserveAspectRatio="xMidYMid meet">
<metadata>
Created by potrace 1.14, written by Peter Selinger 2001-2017
</metadata>
<g transform="translate(0.000000,512.000000) scale(0.100000,-0.100000)"
fill="#000000" stroke="none">
<path d="M2417 4904 c-1 -1 -37 -5 -79 -8 -43 -3 -83 -8 -90 -11 -7 -2 -33 -6
-58 -9 -58 -6 -125 -20 -225 -46 -801 -209 -1443 -841 -1666 -1640 -14 -52
-12 -43 -34 -145 -9 -44 -18 -98 -21 -120 -3 -22 -7 -46 -9 -53 -9 -25 -19
-200 -19 -312 0 -378 75 -699 241 -1037 185 -376 474 -702 823 -929 252 -163
584 -298 840 -339 19 -3 46 -8 60 -10 132 -27 393 -37 575 -22 249 19 518 87
746 187 642 283 1130 844 1317 1515 34 122 39 147 57 255 4 25 9 53 10 62 27
141 24 462 -6 671 -107 770 -642 1471 -1366 1791 -173 77 -412 149 -568 171
-27 4 -61 9 -75 11 -84 13 -443 27 -453 18z m378 -437 c11 -3 45 -8 75 -13 30
-4 57 -8 60 -9 3 -1 21 -5 40 -9 353 -77 676 -254 940 -516 301 -299 489 -670
551 -1085 14 -101 19 -387 8 -480 -12 -97 -20 -149 -24 -155 -2 -3 -6 -21 -9
-40 -12 -71 -16 -89 -52 -196 -185 -566 -634 -1024 -1194 -1217 -223 -77 -413
-106 -665 -101 -187 3 -214 6 -330 30 -38 8 -81 17 -95 20 -14 3 -41 10 -60
16 -19 7 -37 13 -40 13 -29 6 -97 30 -104 37 -6 4 -17 8 -26 8 -30 0 -277 129
-381 199 -102 68 -269 210 -339 287 -74 82 -190 235 -226 299 -128 227 -173
332 -220 520 -24 93 -33 138 -51 255 -15 98 -6 488 12 543 2 6 6 28 9 47 10
68 57 232 92 323 176 452 504 816 928 1029 212 107 380 157 656 197 56 8 409
7 445 -2z"/>
<path d="M2528 4049 c-99 -15 -165 -86 -177 -186 -3 -32 -6 -348 -5 -703 1
-573 3 -649 18 -684 19 -46 629 -664 693 -702 176 -106 391 96 296 279 -9 18
-143 159 -297 314 l-281 281 -1 614 c-1 458 -4 622 -13 650 -30 92 -134 152
-233 137z"/>
</g>
</svg>
